<?xml version="1.0" encoding="UTF-8"?>
<svg width="411px" height="130px" viewBox="0 0 411 130" version="1.1" xmlns="http://www.w3.org/2000/svg" xmlns:xlink="http://www.w3.org/1999/xlink">
    <!-- Generator: Sketch 52.6 (67491) - http://www.bohemiancoding.com/sketch -->
    <title>TXC Markets logo (2) Copy</title>
    <desc>Created with Sketch.</desc>
    <g id="Page-1" stroke="none" stroke-width="1" fill="none" fill-rule="evenodd">
        <g id="TXC-Markets-logo-(2)-Copy">
            <g id="Group" transform="translate(132.000000, 18.000000)">
                <g fill="#133C65" id="Path">
                    <polygon points="47.1 9.4 28.1 9.4 28.1 48.4 19.5 48.4 19.5 9.4 0.4 9.4 0.4 0.8 47.1 0.8"></polygon>
                    <polygon points="75.2 17.8 89.7 0.8 101.5 0.8 81 24.6 101.4 48.3 89.7 48.3 75.2 31.4 60.8 48.3 49 48.3 69.3 24.6 48.9 0.7 60.6 0.7"></polygon>
                    <path d="M148.6,48.4 L117.5,48.4 C116.7,48.4 115.8,48.3 114.9,48.1 C114,47.9 113.1,47.6 112.2,47.2 C111.3,46.8 110.4,46.3 109.6,45.7 C108.8,45.1 108.1,44.3 107.4,43.4 C106.7,42.5 106.3,41.5 105.9,40.3 C105.5,39.1 105.3,37.8 105.3,36.3 L105.3,12.9 C105.3,12.1 105.4,11.2 105.6,10.3 C105.8,9.4 106.1,8.5 106.5,7.6 C106.9,6.7 107.4,5.8 108.1,5 C108.7,4.2 109.5,3.5 110.4,2.8 C111.3,2.1 112.3,1.7 113.5,1.3 C114.7,0.9 116,0.7 117.5,0.7 L148.6,0.7 L148.6,9.3 L117.5,9.3 C116.4,9.3 115.5,9.6 114.9,10.2 C114.3,10.8 114,11.7 114,12.9 L114,36.2 C114,37.3 114.3,38.2 114.9,38.8 C115.5,39.4 116.4,39.7 117.5,39.7 L148.6,39.7 L148.6,48.4 Z"></path>
                </g>
                <g transform="translate(19.000000, 48.000000)" fill="#C1C1C3">
                    <path d="M46.4,43.7 L39.1,43.7 L39.1,19.9 L26.3,42.5 C26,43.1 25.5,43.5 25,43.8 C24.4,44.1 23.8,44.2 23.2,44.2 C22.6,44.2 22,44.1 21.4,43.8 C20.9,43.5 20.4,43.1 20.1,42.5 L7.2,19.9 L7.2,43.7 L0,43.7 L0,6.9 C0,6.1 0.2,5.3 0.7,4.7 C1.2,4.1 1.8,3.6 2.6,3.4 C3,3.3 3.4,3.3 3.8,3.3 C4.2,3.3 4.6,3.4 4.9,3.6 C5.3,3.7 5.6,3.9 5.9,4.2 C6.2,4.5 6.4,4.8 6.7,5.1 L23.2,33.7 L39.7,5.1 C40.1,4.4 40.7,3.9 41.5,3.6 C42.3,3.3 43,3.3 43.9,3.5 C44.7,3.7 45.3,4.2 45.8,4.8 C46.3,5.5 46.6,6.2 46.6,7 L46.6,43.7 L46.4,43.7 Z" id="Path"></path>
                    <path d="M84.9,33.8 C84.9,34.8 84.7,35.9 84.4,37 C84,38.2 83.5,39.2 82.7,40.2 C81.9,41.2 80.9,42 79.6,42.7 C78.3,43.4 76.8,43.7 75,43.7 L61.9,43.7 C60.9,43.7 59.8,43.5 58.7,43.2 C57.5,42.8 56.5,42.3 55.5,41.5 C54.5,40.7 53.7,39.7 53,38.4 C52.3,37.1 52,35.6 52,33.8 C52,32.8 52.2,31.7 52.5,30.5 C52.8,29.3 53.4,28.3 54.2,27.3 C55,26.3 56,25.5 57.3,24.8 C58.6,24.1 60.1,23.8 61.9,23.8 L75,23.8 L75,30.7 L61.9,30.7 C60.9,30.7 60.2,31 59.6,31.6 C59.1,32.2 58.8,32.9 58.8,33.8 C58.8,34.7 59.1,35.5 59.7,36 C60.3,36.5 61.1,36.8 61.9,36.8 L74.9,36.8 C75.9,36.8 76.6,36.5 77.2,35.9 C77.8,35.3 78,34.6 78,33.7 L78,23.6 C78,22.7 77.7,21.9 77.1,21.3 C76.5,20.7 75.8,20.5 74.9,20.5 L59,20.5 L59,13.6 L75,13.6 C76,13.6 77.1,13.8 78.2,14.1 C79.3,14.4 80.4,15 81.4,15.8 C82.4,16.6 83.2,17.6 83.9,18.9 C84.6,20.2 84.9,21.7 84.9,23.5 L84.9,33.8 Z" id="Path"></path>
                    <path d="M117.4,20.9 L101.1,20.9 C100.1,20.9 99.4,21.1 98.9,21.6 C98.4,22.1 98.1,22.8 98.1,23.8 L98.1,43.8 L90.9,43.8 L90.9,23.8 C90.9,22.6 91.1,21.4 91.4,20.5 C91.7,19.5 92.1,18.6 92.7,17.9 C93.2,17.1 93.8,16.5 94.5,16 C95.2,15.5 95.9,15 96.7,14.7 C97.5,14.4 98.2,14.1 99,14 C99.8,13.8 100.5,13.8 101.2,13.8 L117.5,13.8 L117.5,20.9 L117.4,20.9 Z" id="Path"></path>
                    <path d="M129.5,43.7 L122.3,43.7 L122.3,0.9 L129.5,0.9 L129.5,43.7 Z M157.5,43.7 L147.1,43.7 L132.5,29.6 C131.7,28.9 131.3,27.9 131.4,26.8 C131.4,26.3 131.6,25.8 131.8,25.3 C132,24.8 132.4,24.5 132.8,24.1 L146,13.4 L157.6,13.4 L140.6,27.1 L157.5,43.7 Z" id="Shape" fill-rule="nonzero"></path>
                    <path d="M193,23.6 C193,24.6 192.8,25.7 192.5,26.8 C192.1,28 191.6,29 190.8,30 C190,31 189,31.8 187.7,32.5 C186.4,33.2 184.9,33.5 183.1,33.5 L170,33.5 L170,26.6 L183,26.6 C184,26.6 184.7,26.3 185.3,25.7 C185.8,25.1 186.1,24.3 186.1,23.5 C186.1,22.6 185.8,21.8 185.2,21.3 C184.6,20.8 183.9,20.5 183,20.5 L170,20.5 C169,20.5 168.3,20.8 167.7,21.4 C167.2,22 166.9,22.7 166.9,23.6 L166.9,33.7 C166.9,34.7 167.2,35.4 167.8,36 C168.4,36.5 169.1,36.8 170,36.8 L183,36.8 L183,43.7 L170,43.7 C169,43.7 167.9,43.5 166.8,43.2 C165.6,42.8 164.6,42.3 163.6,41.5 C162.6,40.7 161.8,39.7 161.1,38.4 C160.4,37.1 160.1,35.6 160.1,33.8 L160.1,23.6 C160.1,22.6 160.3,21.5 160.6,20.4 C161,19.2 161.5,18.2 162.3,17.2 C163.1,16.2 164.1,15.4 165.4,14.7 C166.7,14 168.2,13.7 170,13.7 L183,13.7 C184,13.7 185.1,13.9 186.2,14.2 C187.4,14.6 188.4,15.1 189.4,15.9 C190.4,16.7 191.2,17.7 191.9,19 C192.7,20.2 193,21.8 193,23.6 Z" id="Path"></path>
                    <polygon id="Path" points="225.2 20.9 212.6 20.9 212.6 43.8 205.3 43.8 205.3 20.9 195.9 20.9 195.9 13.7 205.3 13.7 205.3 3.9 212.6 3.9 212.6 13.7 225.2 13.7"></polygon>
                    <path d="M259.1,33.6 C259.1,34.8 258.9,36 258.6,37 C258.3,38 257.9,38.9 257.3,39.6 C256.8,40.4 256.2,41 255.5,41.5 C254.8,42 254.1,42.5 253.3,42.8 C252.5,43.1 251.8,43.4 251,43.5 C250.2,43.7 249.5,43.7 248.8,43.7 L229.2,43.7 L229.2,36.5 L248.7,36.5 C249.7,36.5 250.4,36.2 250.9,35.7 C251.4,35.2 251.7,34.5 251.7,33.5 C251.6,31.6 250.6,30.6 248.8,30.6 L237.6,30.6 C236,30.6 234.6,30.3 233.5,29.8 C232.4,29.3 231.5,28.5 230.8,27.7 C230.1,26.9 229.6,26 229.3,25 C229,24 228.8,23.1 228.8,22.3 C228.8,20.7 229.1,19.3 229.7,18.2 C230.3,17.1 231,16.2 231.9,15.5 C232.8,14.8 233.7,14.3 234.7,14 C235.7,13.7 236.7,13.5 237.6,13.5 L255.4,13.5 L255.4,20.7 L237.7,20.7 C237.3,20.7 237,20.7 236.8,20.8 C236.6,20.9 236.4,21 236.3,21.1 C236.2,21.2 236.1,21.4 236.1,21.5 C236.1,21.7 236.1,21.8 236.1,22 C236.1,22.3 236.2,22.5 236.3,22.7 C236.4,22.9 236.5,23 236.6,23.1 C236.7,23.2 236.9,23.2 237.1,23.2 C237.3,23.2 237.4,23.2 237.6,23.2 L248.8,23.2 C250.7,23.2 252.2,23.5 253.5,24.2 C254.8,24.9 255.8,25.7 256.6,26.7 C257.4,27.7 258,28.8 258.3,30 C258.9,31.4 259.1,32.5 259.1,33.6 Z" id="Path"></path>
                </g>
            </g>
            <g id="Group">
                <g fill="#C1C1C3" fill-rule="nonzero" id="Shape">
                    <path d="M58.9,0.3 C49.5,0.3 42,7.9 42,17.3 C42,26.7 49.6,34.2 59,34.2 C68.4,34.2 75.9,26.6 75.9,17.2 C75.9,7.9 68.3,0.3 58.9,0.3 Z M59,26.8 C53.7,26.8 49.4,22.5 49.4,17.2 C49.4,11.9 53.7,7.6 59,7.6 C64.3,7.6 68.6,11.9 68.6,17.2 C68.6,22.5 64.3,26.8 59,26.8 Z"></path>
                    <path d="M3,32.6 C-1.6,40.7 1.2,51.1 9.3,55.7 C17.4,60.3 27.8,57.5 32.4,49.4 C37,41.3 34.2,30.9 26.1,26.3 C18,21.6 7.7,24.5 3,32.6 Z M26.1,45.7 C23.5,50.3 17.6,51.9 13,49.3 C8.4,46.7 6.8,40.8 9.4,36.2 C12,31.6 17.9,30 22.5,32.6 C27.1,35.3 28.7,41.1 26.1,45.7 Z"></path>
                    <path d="M3.2,97.3 C8,105.3 18.5,107.9 26.5,103 C34.5,98.2 37.1,87.7 32.2,79.7 C27.4,71.7 16.9,69.1 8.9,74 C0.9,78.9 -1.6,89.3 3.2,97.3 Z M25.9,83.6 C28.6,88.1 27.2,94 22.7,96.8 C18.2,99.5 12.3,98.1 9.5,93.6 C6.8,89.1 8.2,83.2 12.7,80.4 C17.3,77.6 23.2,79 25.9,83.6 Z"></path>
                    <path d="M59,129.3 C68.4,129.2 75.9,121.5 75.8,112.2 C75.7,102.8 68,95.3 58.7,95.4 C49.4,95.5 41.8,103.2 41.9,112.5 C42,121.9 49.7,129.4 59,129.3 Z M58.8,102.8 C64.1,102.7 68.4,107 68.5,112.3 C68.6,117.6 64.3,121.9 59,122 C53.7,122.1 49.4,117.8 49.3,112.5 C49.2,107.2 53.5,102.8 58.8,102.8 Z"></path>
                    <path d="M114.8,97 C119.4,88.9 116.6,78.5 108.5,73.9 C100.4,69.3 90,72.1 85.4,80.2 C80.8,88.3 83.6,98.7 91.7,103.3 C99.8,108 110.2,105.2 114.8,97 Z M91.7,83.9 C94.3,79.3 100.2,77.7 104.8,80.3 C109.4,82.9 111,88.8 108.4,93.4 C105.8,98 99.9,99.6 95.3,97 C90.7,94.4 89.1,88.5 91.7,83.9 Z"></path>
                    <path d="M114.9,32.8 C110.3,24.6 100,21.8 91.8,26.3 C83.6,30.9 80.8,41.2 85.3,49.4 C89.9,57.6 100.2,60.4 108.4,55.9 C116.6,51.2 119.5,40.9 114.9,32.8 Z M91.8,45.8 C89.2,41.2 90.8,35.3 95.5,32.7 C100.1,30.1 106,31.7 108.6,36.4 C111.2,41 109.6,46.9 104.9,49.5 C100.2,52 94.4,50.4 91.8,45.8 Z"></path>
                </g>
                <g transform="translate(36.000000, 45.000000)" fill="#103D64" id="Path">
                    <path d="M11.6,1.4 C8.9,2.9 7.9,6.3 9.4,9.1 C10.9,11.8 14.3,12.8 17.1,11.3 C19.9,9.8 20.8,6.4 19.3,3.6 C17.8,0.9 14.4,-0.1 11.6,1.4 Z"></path>
                    <path d="M0.4,20.7 C0.3,23.8 2.8,26.4 5.9,26.5 C9,26.6 11.6,24.1 11.7,21 C11.8,17.9 9.3,15.3 6.2,15.2 C3,15.1 0.4,17.6 0.4,20.7 Z"></path>
                    <path d="M11.4,40.1 C14.1,41.7 17.5,40.9 19.2,38.2 C20.8,35.5 20,32.1 17.3,30.4 C14.6,28.8 11.2,29.6 9.5,32.3 C7.9,35 8.7,38.5 11.4,40.1 Z"></path>
                    <path d="M33.7,40.2 C36.4,38.7 37.4,35.3 35.9,32.5 C34.4,29.8 31,28.8 28.2,30.3 C25.5,31.8 24.5,35.2 26,38 C27.6,40.7 31,41.7 33.7,40.2 Z"></path>
                    <path d="M45,20.9 C45.1,17.8 42.6,15.2 39.5,15.1 C36.4,15 33.8,17.5 33.7,20.6 C33.6,23.7 36.1,26.3 39.2,26.4 C42.4,26.5 44.9,24.1 45,20.9 Z"></path>
                    <path d="M33.9,1.5 C31.2,-0.1 27.8,0.7 26.1,3.4 C24.5,6.1 25.3,9.5 28,11.2 C30.7,12.9 34.1,12 35.8,9.3 C37.5,6.6 36.6,3.2 33.9,1.5 Z"></path>
                </g>
            </g>
        </g>
    </g>
</svg>